<?xml version="1.0" encoding="UTF-8" standalone="no"?>
<!DOCTYPE svg PUBLIC "-//W3C//DTD SVG 1.1//EN" "http://www.w3.org/Graphics/SVG/1.1/DTD/svg11.dtd">
<svg xmlns="http://www.w3.org/2000/svg" class="background" version="1.1" id="svg-bg" viewBox="0 0 8 8">
    <defs>
        <style type="text/css">.d { cursor: pointer; }</style>
    </defs>
    <g>
        <rect width="1" height="1" class="l"></rect><rect x="1" width="1" height="1" class="d"></rect><rect x="2" width="1" height="1" class="l"></rect><rect x="3" width="1" height="1" class="d"></rect><rect x="4" width="1" height="1" class="l"></rect><rect x="5" width="1" height="1" class="d"></rect><rect x="6" width="1" height="1" class="l"></rect><rect x="7" width="1" height="1" class="d"></rect><rect y="1" width="1" height="1" class="d"></rect><rect x="1" y="1" width="1" height="1" class="l"></rect><rect x="2" y="1" width="1" height="1" class="d"></rect><rect x="3" y="1" width="1" height="1" class="l"></rect><rect x="4" y="1" width="1" height="1" class="d"></rect><rect x="5" y="1" width="1" height="1" class="l"></rect><rect x="6" y="1" width="1" height="1" class="d"></rect><rect x="7" y="1" width="1" height="1" class="l"></rect><rect y="2" width="1" height="1" class="l"></rect><rect x="1" y="2" width="1" height="1" class="d"></rect><rect x="2" y="2" width="1" height="1" class="l"></rect><rect x="3" y="2" width="1" height="1" class="d"></rect><rect x="4" y="2" width="1" height="1" class="l"></rect><rect x="5" y="2" width="1" height="1" class="d"></rect><rect x="6" y="2" width="1" height="1" class="l"></rect><rect x="7" y="2" width="1" height="1" class="d"></rect><rect y="3" width="1" height="1" class="d"></rect><rect x="1" y="3" width="1" height="1" class="l"></rect><rect x="2" y="3" width="1" height="1" class="d"></rect><rect x="3" y="3" width="1" height="1" class="l"></rect><rect x="4" y="3" width="1" height="1" class="d"></rect><rect x="5" y="3" width="1" height="1" class="l"></rect><rect x="6" y="3" width="1" height="1" class="d"></rect><rect x="7" y="3" width="1" height="1" class="l"></rect><rect y="4" width="1" height="1" class="l"></rect><rect x="1" y="4" width="1" height="1" class="d"></rect><rect x="2" y="4" width="1" height="1" class="l"></rect><rect x="3" y="4" width="1" height="1" class="d"></rect><rect x="4" y="4" width="1" height="1" class="l"></rect><rect x="5" y="4" width="1" height="1" class="d"></rect><rect x="6" y="4" width="1" height="1" class="l"></rect><rect x="7" y="4" width="1" height="1" class="d"></rect><rect y="5" width="1" height="1" class="d"></rect><rect x="1" y="5" width="1" height="1" class="l"></rect><rect x="2" y="5" width="1" height="1" class="d"></rect><rect x="3" y="5" width="1" height="1" class="l"></rect><rect x="4" y="5" width="1" height="1" class="d"></rect><rect x="5" y="5" width="1" height="1" class="l"></rect><rect x="6" y="5" width="1" height="1" class="d"></rect><rect x="7" y="5" width="1" height="1" class="l"></rect><rect y="6" width="1" height="1" class="l"></rect><rect x="1" y="6" width="1" height="1" class="d"></rect><rect x="2" y="6" width="1" height="1" class="l"></rect><rect x="3" y="6" width="1" height="1" class="d"></rect><rect x="4" y="6" width="1" height="1" class="l"></rect><rect x="5" y="6" width="1" height="1" class="d"></rect><rect x="6" y="6" width="1" height="1" class="l"></rect><rect x="7" y="6" width="1" height="1" class="d"></rect><rect y="7" width="1" height="1" class="d"></rect><rect x="1" y="7" width="1" height="1" class="l"></rect><rect x="2" y="7" width="1" height="1" class="d"></rect><rect x="3" y="7" width="1" height="1" class="l"></rect><rect x="4" y="7" width="1" height="1" class="d"></rect><rect x="5" y="7" width="1" height="1" class="l"></rect><rect x="6" y="7" width="1" height="1" class="d"></rect>
        <rect x="7" y="7" width="1" height="1" class="l"></rect>
    </g>
    <g>
        <rect x="0" y="0" width="1" height="1" class="l source"></rect>
    </g>
    <g transform="scale(0.02) translate(5,2)" style="fill:#ffffff;stroke:#000000;stroke-width:1.5;stroke-linejoin:round" >
        <path d="M 9,26 C 17.5,24.5 30,24.5 36,26 L 38.5,13.5 L 31,25 L 30.7,10.9 L 25.5,24.5 L 22.5,10 L 19.5,24.5 L 14.3,10.9 L 14,25 L 6.5,13.5 L 9,26 z"/>
        <path d="M 9,26 C 9,28 10.5,28 11.5,30 C 12.5,31.5 12.5,31 12,33.5 C 10.5,34.5 11,36 11,36 C 9.5,37.5 11,38.5 11,38.5 C 17.5,39.5 27.5,39.5 34,38.5 C 34,38.5 35.5,37.5 34,36 C 34,36 34.5,34.5 33,33.5 C 32.5,31 32.5,31.5 33.5,30 C 34.5,28 36,28 36,26 C 27.5,24.5 17.5,24.5 9,26 z"/>
        <path d="M 11.5,30 C 15,29 30,29 33.5,30" style="fill:none"/>
        <path d="M 12,33.5 C 18,32.5 27,32.5 33,33.5" style="fill:none"/>
        <circle cx="6" cy="12" r="2" />
        <circle cx="14" cy="9" r="2" />
        <circle cx="22.5" cy="8" r="2" />
        <circle cx="31" cy="9" r="2" />
        <circle cx="39" cy="12" r="2" />
        </g>
</svg>    